<?xml version="1.0" encoding="UTF-8"?>
<svg id="Layer_1" xmlns="http://www.w3.org/2000/svg" xmlns:xlink="http://www.w3.org/1999/xlink" version="1.1" viewBox="0 0 184 184">
  <!-- Generator: Adobe Illustrator 29.5.1, SVG Export Plug-In . SVG Version: 2.1.0 Build 141)  -->
  <defs>
    <style>
      .st0 {
        fill: #1d2d5c;
      }

      .st1 {
        fill: #e31837;
      }

      .st2 {
        fill: #f6f7f8;
      }
    </style>
  </defs>
  <rect class="st2" width="184" height="184" rx="18" ry="18"/>
  <g id="C-ISACA">
    <a xlink:href="65.3996078431373">
      <path id="logoMark__x3C_PathItem_x3E_" class="st1" d="M90.4,152.3c-34.8,0-62.8-29.5-60.3-64.8,2.1-30,26.6-54.2,56.6-56,25.8-1.5,48.5,13.3,58.5,35,.3.5.8.8,1.4.8h13.5c1,0,1.8-1,1.4-2-10.9-29.2-39.3-49.9-72.4-49.4-40,.7-73.1,33-74.6,73-1.6,43.3,32.9,78.9,75.9,78.9s60.4-20.6,71.1-49.4c.4-.9-.4-2-1.4-2h-13.5c-.6,0-1.1.3-1.3.8-9.6,20.7-30.6,35-54.8,35h0Z"/>
    </a>
  </g>
  <g id="Layer_19">
    <g>
      <g>
        <path class="st0" d="M36.4,111l17.8-39.6c.2-.4.5-.6,1-.6h.6c.5,0,.8.3,1,.6l17.7,39.6c.4.8-.1,1.5-1,1.5h-2.4c-.5,0-.9-.4-1-.6l-4.4-9.7h-20.9l-4.3,9.7c-.1.3-.5.6-1,.6h-2.4c-.9,0-1.4-.8-1-1.5h.1,0ZM64.3,98.6c-2.9-6.4-5.7-12.9-8.6-19.3h-.5l-8.6,19.3h17.7,0Z"/>
        <path class="st0" d="M71.3,111l18.4-39.6c.2-.4.6-.6,1-.6h.6c.4,0,.8.3,1,.6l18.4,39.6c.4.8-.1,1.5-1,1.5h-6.5c-1,0-1.5-.4-2-1.5l-2.1-4.6h-16l-2.1,4.7c-.3.7-.9,1.4-2.1,1.4h-6.5c-.9,0-1.4-.8-1-1.5h-.1ZM95.4,98.4l-4.5-9.7h0l-4.4,9.7h8.9Z"/>
        <path class="st0" d="M111.6,72.5c0-.6.5-1.1,1.1-1.1h7c.6,0,1.1.5,1.1,1.1v38.9c0,.6-.5,1.1-1.1,1.1h-7c-.6,0-1.1-.5-1.1-1.1v-38.9Z"/>
        <path class="st0" d="M122.5,111l17.8-39.6c.2-.4.5-.6,1-.6h.6c.5,0,.8.3,1,.6l17.7,39.6c.4.8-.1,1.5-1,1.5h-2.4c-.5,0-.9-.4-1-.6l-4.4-9.7h-20.9l-4.3,9.7c-.1.3-.5.6-1,.6h-2.4c-.9,0-1.4-.8-1-1.5h.1,0ZM150.4,98.6c-2.9-6.4-5.7-12.9-8.6-19.3h-.5l-8.6,19.3h17.7,0Z"/>
      </g>
      <g>
        <path class="st0" d="M164.6,109.3h-2c-.1,0-.2.1-.2.2h0c0,.2.1.3.2.3h.8v2.6c0,.1.1.2.2.2h.1c.1,0,.2-.1.2-.2v-2.6h.7c.1,0,.2-.1.2-.2h0c0-.2-.1-.3-.2-.3Z"/>
        <path class="st0" d="M168.5,112.3l-.6-3c0,0,0-.2-.2-.2h0c-.1,0-.2.1-.2.2l-.8,2.4-.8-2.4c0,0,0-.2-.2-.2h0c-.1,0-.2,0-.2.2l-.6,3v.2s0,0,.1,0h.1c0,0,.2,0,.2-.2l.5-2,.7,2.1c0,.1.1.1.2.1h.1s.1,0,.2-.1l.7-2.1.5,2c0,.1.1.2.2.2h.1c0,0,.1,0,.1,0v-.2Z"/>
      </g>
    </g>
  </g>
</svg>