<?xml version="1.0" encoding="UTF-8"?><svg id="Layer_1" xmlns="http://www.w3.org/2000/svg" viewBox="0 0 184 184"><defs><style>.cls-1{fill:#f6f7f8;}.cls-2{fill:#1da3dd;}.cls-3{fill:#1d2e5c;}</style></defs><rect class="cls-1" width="184" height="184" rx="18" ry="18"/><path class="cls-3" d="M161.62,102.38c1.47,0,2.68,1.21,2.68,2.68s-1.21,2.68-2.68,2.68-2.68-1.21-2.68-2.68c-.05-1.47,1.16-2.68,2.68-2.68m0,4.95c1.26,0,2.26-1,2.26-2.26s-1-2.26-2.26-2.26-2.26,1-2.26,2.26c0,1.26,1,2.26,2.26,2.26m-.95-3.53c0-.05,.05-.16,.16-.16h1.05c.47,0,.95,.26,.95,.84s-.42,.79-.63,.84c.16,.32,.32,.58,.47,.89,.05,.11,0,.21-.11,.21h-.26c-.05,0-.11-.05-.16-.11l-.42-.95h-.58v.89c0,.05-.05,.16-.16,.16h-.21c-.11,0-.16-.05-.16-.16v-2.47h.05Zm1.21,1.16c.26,0,.47-.21,.47-.42,0-.26-.16-.42-.47-.42h-.74v.84h.74Z"/><path class="cls-2" d="M90.57,152.12c-34.94,0-63.15-29.68-60.63-65.15,2.11-30.16,26.73-54.47,56.94-56.31,26-1.53,48.73,13.31,58.89,35.16,.26,.53,.79,.89,1.37,.89h13.63c1.05,0,1.79-1.05,1.42-2-11.05-29.42-39.58-50.26-72.94-49.73C49.05,15.65,15.79,48.12,14.26,88.33c-1.68,43.52,33.16,79.31,76.31,79.31,32.79,0,60.68-20.63,71.52-49.63,.37-.95-.37-2-1.42-2h-13.63c-.58,0-1.11,.32-1.37,.84-9.68,20.79-30.73,35.26-55.1,35.26"/><path class="cls-3" d="M55.63,74.96c4.53,0,7.89,1.42,11,4.21,.42,.37,.42,.89,.05,1.26l-3.53,3.68c-.32,.32-.84,.32-1.16,0-1.68-1.53-3.89-2.32-6.16-2.32-5.16,0-8.89,4.26-8.89,9.37s3.84,9.21,8.95,9.21c2.16,0,4.47-.79,6.1-2.16,.32-.26,.89-.26,1.16,.05l3.53,3.79c.32,.32,.26,.89-.05,1.21-3.11,3-7,4.42-11.05,4.42-9.1,0-16.42-7.21-16.42-16.31s7.37-16.42,16.47-16.42"/><path class="cls-3" d="M86.05,75.02c3.84,0,8,1.58,11.1,4.26,.42,.32,.47,.84,.11,1.21l-3.58,3.84c-.37,.32-.84,.32-1.21,.05-1.74-1.58-3.74-2.16-5.95-2.16-4.95,0-8.95,4.16-8.95,9.16s4.05,9.05,9,9.05c1.32,0,2.68-.16,4.05-.74v-2.63h-2.84c-.53,0-.84-.37-.84-.84v-4.47c0-.53,.37-.84,.84-.84h9.16c.47,0,.84,.42,.84,.84l.05,12.21c0,.21-.16,.58-.37,.74,0,0-4.68,2.95-11.26,2.95-9.05,0-16.31-7.16-16.31-16.26-.16-9.1,7.1-16.37,16.16-16.37"/><path class="cls-3" d="M103.89,76.28c0-.47,.37-.84,.84-.84h18.79c.47,0,.84,.42,.84,.84v4.95c0,.47-.37,.84-.84,.84h-12.58v5.63h10.37c.47,0,.84,.42,.84,.84v4.95c0,.53-.42,.84-.84,.84h-10.37v6.16h12.58c.47,0,.84,.42,.84,.84v4.95c0,.47-.37,.84-.84,.84h-18.79c-.47,0-.84-.42-.84-.84v-30h0Z"/><path class="cls-3" d="M130.52,76.28c0-.47,.42-.84,.84-.84h5.47c.47,0,.84,.42,.84,.84v30.1c0,.47-.42,.84-.84,.84h-5.47c-.47,0-.84-.42-.84-.84v-30.1Z"/><path class="cls-3" d="M149.57,82.12h-6.47c-.53,0-.84-.42-.84-.84v-4.95c0-.47,.37-.84,.84-.84h20.16c.53,0,.84,.42,.84,.84v4.95c0,.47-.37,.84-.84,.84h-6.47v24.26c0,.47-.42,.84-.84,.84h-5.47c-.47,0-.84-.42-.84-.84v-24.26h-.05Z"/></svg>