<?xml version="1.0" encoding="UTF-8"?><svg id="Layer_1" xmlns="http://www.w3.org/2000/svg" viewBox="0 0 184 184"><defs><style>.cls-1{fill:#f6f7f8;}.cls-2{fill:#e21d39;}.cls-3{fill:#1d2e5c;}</style></defs><rect class="cls-1" width="184" height="184" rx="18" ry="18"/><g><path class="cls-3" d="M166.88,106.12c1.47,0,2.68,1.21,2.68,2.68s-1.21,2.68-2.68,2.68-2.68-1.21-2.68-2.68,1.21-2.68,2.68-2.68m0,4.94c1.26,0,2.26-1,2.26-2.26s-1-2.26-2.26-2.26-2.26,1-2.26,2.26,1,2.26,2.26,2.26m-.95-3.47c0-.05,.05-.16,.16-.16h1.05c.47,0,.95,.26,.95,.84s-.42,.79-.63,.84c.16,.32,.32,.58,.47,.89,.05,.11,0,.21-.11,.21h-.26c-.05,0-.11-.05-.16-.11l-.42-.95h-.58v.89c0,.05-.05,.16-.16,.16h-.21c-.11,0-.16-.05-.16-.16v-2.47h.05v.02Zm1.22,1.1c.26,0,.47-.21,.47-.42,0-.26-.16-.42-.47-.42h-.74v.84h.74Z"/><path class="cls-2" d="M90.53,152.6c-34.86,0-62.94-29.6-60.47-64.99,2.1-30.08,26.66-54.32,56.73-56.1,25.87-1.52,48.58,13.3,58.68,35.07,.26,.53,.79,.84,1.37,.84h13.57c1.05,0,1.79-1.05,1.42-2-10.88-29.29-39.33-50.06-72.56-49.53C49.15,16.58,16.02,48.97,14.5,89.03c-1.63,43.38,33.02,79.08,76.08,79.08,32.65,0,60.52-20.61,71.3-49.48,.37-.95-.37-2-1.42-2h-13.57c-.58,0-1.1,.32-1.37,.84-9.67,20.72-30.65,35.12-55,35.12"/><path class="cls-3" d="M64.13,72.26c5.36,0,9.36,1.68,13.04,5,.47,.42,.47,1.05,.05,1.52l-4.21,4.36c-.37,.37-.95,.37-1.37,0-2-1.79-4.63-2.73-7.26-2.73-6.1,0-10.57,5.05-10.57,11.09s4.52,10.94,10.62,10.94c2.52,0,5.26-.89,7.2-2.58,.37-.32,1.1-.32,1.42,.05l4.21,4.47c.37,.37,.32,1.1-.05,1.47-3.68,3.58-8.31,5.21-13.09,5.21-10.78,0-19.45-8.57-19.45-19.35s8.68-19.45,19.45-19.45"/><path class="cls-3" d="M83.69,73.84c0-.53,.47-1,1-1h6.47c.53,0,1.05,.47,1.05,1v35.65c0,.53-.47,1-1.05,1h-6.47c-.53,0-1-.47-1-1v-35.65Z"/><path class="cls-3" d="M99.31,105.39l2.52-4.47c.42-.68,1.47-.58,1.84-.32,.21,.11,4.1,2.94,7.62,2.94,2.16,0,3.73-1.37,3.73-3.21,0-2.26-1.89-4-5.57-5.42-4.63-1.84-10.46-5.42-10.46-11.88,0-5.31,4.15-10.73,12.46-10.73,5.63,0,9.89,2.84,11.52,4.05,.63,.37,.53,1.37,.32,1.74l-2.73,4.15c-.37,.58-1.37,1.1-1.84,.68-.47-.26-4.42-3.26-7.68-3.26-1.95,0-3.42,1.31-3.42,2.73,0,2,1.63,3.52,5.89,5.21,4.21,1.68,10.88,4.94,10.88,12.3,0,5.57-4.78,11.15-12.72,11.15-6.99,0-10.88-2.89-12.15-4.15-.47-.58-.63-.79-.21-1.52"/><path class="cls-3" d="M126.13,109.12l16.88-36.23c.16-.32,.53-.58,.89-.58h.53c.37,0,.74,.26,.89,.58l16.88,36.23c.32,.68-.11,1.42-.89,1.42h-5.99c-.95,0-1.42-.32-1.89-1.37l-1.95-4.26h-14.67l-1.95,4.31c-.26,.63-.84,1.31-1.95,1.31h-5.94c-.68-.05-1.16-.74-.84-1.42m22.19-11.57l-4.1-8.89h-.05l-4.05,8.89h8.2Z"/></g></svg>