<?xml version="1.0" encoding="UTF-8"?><svg id="Layer_1" xmlns="http://www.w3.org/2000/svg" viewBox="0 0 184 184"><defs><style>.cls-1{fill:#f6f7f8;}.cls-2{fill:#6bb345;}.cls-3{fill:#1d2e5c;}</style></defs><rect class="cls-1" width="184" height="184" rx="18" ry="18"/><path class="cls-3" d="M166.94,105.92c1.47,0,2.68,1.21,2.68,2.68s-1.21,2.68-2.68,2.68-2.68-1.21-2.68-2.68,1.21-2.68,2.68-2.68m0,4.93c1.26,0,2.26-1,2.26-2.26s-1-2.26-2.26-2.26-2.26,1-2.26,2.26c.05,1.26,1.05,2.26,2.26,2.26m-.89-3.46c0-.05,.05-.16,.16-.16h1.05c.47,0,.94,.26,.94,.84s-.42,.79-.63,.84c.16,.31,.31,.58,.47,.89,.05,.1,0,.21-.1,.21h-.26c-.05,0-.1-.05-.16-.1l-.42-.94h-.58v.89c0,.05-.05,.16-.16,.16h-.21c-.1,0-.16-.05-.16-.16v-2.47h.05Zm1.15,1.1c.26,0,.47-.21,.47-.42,0-.26-.16-.42-.47-.42h-.73v.84h.73Z"/><path class="cls-2" d="M90.65,152.41c-34.84,0-62.92-29.6-60.45-64.96,2.1-30.07,26.66-54.31,56.72-56.1,25.87-1.52,48.54,13.28,58.67,35.05,.26,.52,.79,.84,1.36,.84h13.59c1.05,0,1.78-1.05,1.42-1.99-10.91-29.28-39.36-50.06-72.57-49.54C49.3,16.39,16.13,48.77,14.61,88.81c-1.63,43.4,33.06,79.08,76.04,79.08,32.64,0,60.5-20.57,71.31-49.48,.37-.94-.37-1.99-1.42-1.99h-13.59c-.58,0-1.1,.31-1.36,.84-9.6,20.73-30.59,35.16-54.94,35.16"/><path class="cls-3" d="M57.59,72.54c5.4,0,9.39,1.68,13.01,4.99,.47,.42,.47,1.1,.05,1.52l-4.2,4.36c-.37,.37-.94,.37-1.36,0-1.99-1.78-4.62-2.73-7.29-2.73-6.09,0-10.55,5.04-10.55,11.07s4.51,10.91,10.6,10.91c2.52,0,5.3-.89,7.24-2.57,.37-.31,1.1-.31,1.42,.05l4.2,4.46c.37,.37,.31,1.1-.05,1.47-3.67,3.57-8.29,5.25-13.07,5.25-10.76,0-19.42-8.55-19.42-19.31-.05-10.81,8.66-19.47,19.42-19.47"/><path class="cls-3" d="M76.32,74.12c0-.52,.47-1,1-1h6.45c.52,0,1,.47,1,1v35.63c0,.52-.47,1-1,1h-6.45c-.52,0-1-.47-1-1v-35.63Z"/><path class="cls-3" d="M91.12,105.65l2.52-4.46c.42-.68,1.47-.58,1.84-.31,.21,.1,4.09,2.94,7.66,2.94,2.15,0,3.73-1.36,3.73-3.25,0-2.26-1.89-3.99-5.56-5.46-4.62-1.84-10.44-5.46-10.44-11.91,0-5.35,4.15-10.7,12.44-10.7,5.61,0,9.92,2.83,11.54,4.04,.63,.37,.52,1.36,.31,1.73l-2.73,4.15c-.37,.58-1.36,1.1-1.84,.68-.47-.26-4.41-3.25-7.71-3.25-1.94,0-3.41,1.31-3.41,2.73,0,1.99,1.63,3.52,5.88,5.25,4.2,1.68,10.86,4.93,10.86,12.28,0,5.56-4.78,11.12-12.7,11.12-6.98,0-10.86-2.89-12.12-4.15-.52-.42-.68-.63-.26-1.42"/><path class="cls-3" d="M125.7,73.38c.05-.47,.52-.84,.94-.84h.84c.26,0,.73,.21,.89,.52l12.49,23.25h.1l12.49-23.25c.16-.31,.63-.52,.89-.52h.84c.42,0,.89,.37,.94,.84l6.09,36.21c.1,.68-.37,1.21-1,1.21h-6.35c-.47,0-.94-.42-1-.84l-2.41-16.63h0l-9.03,17.47c-.16,.31-.63,.58-.89,.58h-.94c-.31,0-.73-.26-.89-.58l-9.08-17.47h-.1l-2.36,16.63c-.05,.42-.47,.84-1,.84h-6.35c-.63,0-1.15-.47-1.05-1.21l5.93-36.21Z"/></svg>