<?xml version="1.0" encoding="UTF-8"?><svg id="Layer_1" xmlns="http://www.w3.org/2000/svg" viewBox="0 0 184 184"><defs><style>.cls-1{fill:#f6f7f8;}.cls-2{fill:#fcb034;}.cls-3{fill:#1d2e5c;}</style></defs><rect class="cls-1" width="184" height="184" rx="18" ry="18"/><path class="cls-2" d="M90.71,152.35c-34.97,0-63.09-29.65-60.62-65.15,2.11-30.18,26.7-54.51,56.88-56.3,25.96-1.53,48.72,13.32,58.83,35.18,.26,.53,.79,.84,1.37,.84h13.64c1.05,0,1.79-1.05,1.42-2-10.95-29.39-39.45-50.24-72.79-49.66C49.16,15.94,15.98,48.39,14.4,88.57c-1.69,43.5,33.13,79.32,76.26,79.32,32.76,0,60.67-20.65,71.52-49.61,.37-.95-.37-2-1.42-2h-13.64c-.58,0-1.11,.32-1.37,.84-9.64,20.8-30.65,35.23-55.04,35.23"/><path class="cls-3" d="M52.64,75.25c4.53,0,7.9,1.42,11.01,4.21,.42,.37,.42,.9,.05,1.26l-3.53,3.69c-.32,.32-.84,.32-1.16,0-1.69-1.47-3.9-2.32-6.11-2.32-5.11,0-8.9,4.27-8.9,9.37s3.79,9.22,8.95,9.22c2.16,0,4.48-.79,6.11-2.16,.32-.26,.9-.26,1.16,.05l3.53,3.79c.32,.32,.26,.9-.05,1.21-3.11,3-7,4.42-11.06,4.42-9.06,0-16.38-7.22-16.38-16.33s7.32-16.43,16.38-16.43"/><path class="cls-3" d="M67.75,76.56c0-.47,.37-.84,.84-.84h13.59c5.48,0,9.9,4.42,9.9,9.8,0,4.16-2.79,7.53-6.74,9.11l6.21,11.53c.32,.58,0,1.32-.79,1.32h-6.06c-.37,0-.63-.21-.74-.42l-6.06-12.06h-3.16v11.59c0,.47-.42,.84-.84,.84h-5.42c-.53,0-.84-.42-.84-.84v-30.02h.11Zm13.85,12.69c1.84,0,3.48-1.74,3.48-3.63s-1.58-3.48-3.48-3.48h-6.74v7.11h6.74Z"/><path class="cls-3" d="M97.25,76.56c0-.47,.42-.84,.84-.84h5.42c.47,0,.84,.42,.84,.84v30.07c0,.47-.42,.84-.84,.84h-5.42c-.47,0-.84-.42-.84-.84v-30.07Z"/><path class="cls-3" d="M109.52,103.16l2.16-3.79c.37-.58,1.21-.47,1.53-.26,.16,.11,3.48,2.48,6.43,2.48,1.84,0,3.16-1.16,3.16-2.74,0-1.9-1.58-3.37-4.69-4.58-3.9-1.53-8.8-4.58-8.8-10.06,0-4.48,3.48-9.06,10.48-9.06,4.74,0,8.37,2.42,9.74,3.42,.53,.32,.47,1.16,.26,1.47l-2.32,3.48c-.32,.53-1.16,.9-1.53,.58-.42-.21-3.74-2.74-6.48-2.74-1.63,0-2.84,1.11-2.84,2.32,0,1.69,1.37,2.95,4.95,4.42,3.53,1.42,9.16,4.16,9.16,10.38,0,4.69-4.06,9.37-10.74,9.37-5.9,0-9.16-2.48-10.22-3.48-.47-.37-.63-.58-.26-1.21"/><path class="cls-3" d="M149.39,75.25c4.53,0,7.9,1.42,11.01,4.21,.42,.37,.42,.9,.05,1.26l-3.53,3.69c-.32,.32-.84,.32-1.16,0-1.69-1.47-3.9-2.32-6.11-2.32-5.11,0-8.9,4.27-8.9,9.37s3.79,9.22,8.95,9.22c2.16,0,4.48-.79,6.11-2.16,.32-.26,.9-.26,1.16,.05l3.53,3.79c.32,.32,.26,.9-.05,1.21-3.11,3-7,4.42-11.06,4.42-9.06,0-16.38-7.22-16.38-16.33s7.32-16.43,16.38-16.43"/><path class="cls-3" d="M164.45,102.63c1.47,0,2.69,1.21,2.69,2.69s-1.21,2.69-2.69,2.69-2.69-1.21-2.69-2.69,1.21-2.69,2.69-2.69m0,4.95c1.26,0,2.26-1,2.26-2.26s-1-2.26-2.26-2.26-2.26,1-2.26,2.26c.05,1.21,1.05,2.26,2.26,2.26m-.95-3.53c0-.05,.05-.16,.16-.16h1.05c.47,0,.95,.26,.95,.84s-.42,.79-.63,.84c.16,.32,.32,.58,.47,.9,.05,.11,0,.21-.11,.21h-.26c-.05,0-.11-.05-.16-.11l-.42-.95h-.58v.9c0,.05-.05,.16-.16,.16h-.21c-.11,0-.16-.05-.16-.16v-2.48h.05Zm1.21,1.16c.26,0,.47-.21,.47-.42,0-.26-.16-.42-.47-.42h-.74v.84h.74Z"/></svg>